<svg width="22" height="24" viewBox="0 0 22 24" fill="none" xmlns="http://www.w3.org/2000/svg">
<path d="M20.6482 7.02357L21.4714 11.7833C21.677 12.9721 20.7627 14.0594 19.5576 14.0594H13.513C12.9139 14.0594 12.4577 14.5972 12.5547 15.189L13.3278 19.9077C13.4534 20.6743 13.4175 21.4587 13.2225 22.2106C13.0609 22.8334 12.5803 23.3336 11.9483 23.5366L11.7792 23.5909C11.3973 23.7136 10.9804 23.6851 10.6203 23.5116C10.2239 23.3206 9.93389 22.9722 9.82641 22.5578L9.27142 20.4183C9.09483 19.7376 8.83761 19.0805 8.50596 18.4596C8.02139 17.5525 7.27217 16.8265 6.49338 16.1554L4.81485 14.7089C4.34159 14.3011 4.09304 13.6904 4.1469 13.0675L5.09442 2.10943C5.18133 1.1043 6.02168 0.332681 7.02943 0.332681H12.4528C16.5143 0.332681 19.9805 3.16256 20.6482 7.02357Z" fill="#FF0000"/>
<path opacity="0.5" fill-rule="evenodd" clip-rule="evenodd" d="M1.58896 14.9309C2.06459 14.95 2.47197 14.6164 2.51299 14.1742L3.66466 1.75705C3.73864 0.959416 3.06473 0.271954 2.2042 0.271954C1.39364 0.271954 0.738281 0.884984 0.738281 1.63922V14.1028C0.738281 14.5467 1.11332 14.9117 1.58896 14.9309Z" fill="#FF0000"/>
</svg>
