<svg width="28" height="28" viewBox="0 0 28 28" fill="none" xmlns="http://www.w3.org/2000/svg">
<path d="M23.6482 18.9764L24.4714 14.2167C24.677 13.0279 23.7627 11.9406 22.5576 11.9406H16.513C15.9139 11.9406 15.4577 11.4028 15.5547 10.811L16.3278 6.09231C16.4534 5.32572 16.4175 4.54132 16.2225 3.78943C16.0609 3.16657 15.5803 2.66643 14.9483 2.4634L14.7792 2.40906C14.3973 2.28636 13.9804 2.31491 13.6203 2.48844C13.2239 2.67945 12.9339 3.02784 12.8264 3.44219L12.2714 5.58169C12.0948 6.26242 11.8376 6.91951 11.506 7.54037C11.0214 8.44752 10.2722 9.17353 9.49338 9.84463L7.81485 11.2911C7.34159 11.6989 7.09304 12.3096 7.1469 12.9325L8.09442 23.8906C8.18133 24.8957 9.02168 25.6673 10.0294 25.6673H15.4528C19.5143 25.6673 22.9805 22.8374 23.6482 18.9764Z" fill="#008DFF"/>
<path opacity="0.5" fill-rule="evenodd" clip-rule="evenodd" d="M4.58896 11.0691C5.06459 11.05 5.47197 11.3836 5.51299 11.8258L6.66466 24.243C6.73864 25.0406 6.06473 25.728 5.2042 25.728C4.39364 25.728 3.73828 25.115 3.73828 24.3608V11.8972C3.73828 11.4533 4.11332 11.0883 4.58896 11.0691Z" fill="#008DFF"/>
</svg>
