<svg width="28" height="28" viewBox="0 0 28 28" fill="none" xmlns="http://www.w3.org/2000/svg">
<path d="M23.6473 9.02455L24.4704 13.7843C24.676 14.9731 23.7618 16.0604 22.5566 16.0604H16.512C15.9129 16.0604 15.4567 16.5982 15.5537 17.19L16.3268 21.9087C16.4524 22.6753 16.4165 23.4597 16.2215 24.2115C16.0599 24.8344 15.5794 25.3346 14.9474 25.5376L14.7782 25.5919C14.3963 25.7146 13.9794 25.6861 13.6193 25.5125C13.2229 25.3215 12.9329 24.9731 12.8254 24.5588L12.2704 22.4193C12.0939 21.7386 11.8366 21.0815 11.505 20.4606C11.0204 19.5535 10.2712 18.8275 9.4924 18.1563L7.81388 16.7099C7.34061 16.3021 7.09207 15.6913 7.14592 15.0685L8.09345 4.11041C8.18036 3.10528 9.02071 2.33366 10.0285 2.33366H15.4518C19.5133 2.33366 22.9796 5.16353 23.6473 9.02455Z" fill="#FF0000"/>
<path opacity="0.5" fill-rule="evenodd" clip-rule="evenodd" d="M4.58896 16.9309C5.06459 16.95 5.47197 16.6164 5.51299 16.1742L6.66466 3.75705C6.73864 2.95942 6.06473 2.27195 5.2042 2.27195C4.39364 2.27195 3.73828 2.88498 3.73828 3.63922V16.1028C3.73828 16.5467 4.11332 16.9117 4.58896 16.9309Z" fill="#FF0000"/>
</svg>
