<svg width="26" height="26" viewBox="0 0 26 26" fill="none" xmlns="http://www.w3.org/2000/svg">
<path d="M9.12399 22.3363C11.0259 23.3344 11.9769 23.8334 12.9998 23.8334V13.0001L2.85769 7.66211C2.84276 7.68611 2.82809 7.71033 2.81368 7.7348C2.1665 8.83385 2.1665 10.2015 2.1665 12.9367V13.0634C2.1665 15.7987 2.1665 17.1663 2.81368 18.2654C3.46086 19.3644 4.62635 19.976 6.95732 21.1993L9.12399 22.3363Z" fill="#BCBCBC"/>
<path opacity="0.7" d="M19.0421 4.80114L16.8754 3.66412C14.9735 2.66604 14.0225 2.16699 12.9996 2.16699C11.9766 2.16699 11.0256 2.66604 9.12372 3.66412L6.95706 4.80114C4.67798 5.99714 3.51307 6.60846 2.85742 7.66235L12.9996 13.0003L23.1417 7.66235C22.4861 6.60846 21.3212 5.99714 19.0421 4.80114Z" fill="#BCBCBC"/>
<path opacity="0.5" d="M23.1862 7.7348C23.1717 7.71033 23.1571 7.68611 23.1421 7.66211L13 13.0001V23.8334C14.023 23.8334 14.9739 23.3344 16.8759 22.3363L19.0425 21.1993C21.3735 19.976 22.539 19.3644 23.1862 18.2654C23.8333 17.1663 23.8333 15.7987 23.8333 13.0634V12.9367C23.8333 10.2015 23.8333 8.83385 23.1862 7.7348Z" fill="#BCBCBC"/>
</svg>
