<svg width="26" height="26" viewBox="0 0 26 26" fill="none" xmlns="http://www.w3.org/2000/svg">
<path opacity="0.5" d="M23.6579 12.0538L23.4096 14.692C23.0005 19.039 22.7959 21.2125 21.5147 22.5231C20.2336 23.8337 18.3134 23.8337 14.4731 23.8337H11.5266C7.68627 23.8337 5.76611 23.8337 4.48494 22.5231C3.20377 21.2125 2.99921 19.039 2.59009 14.692L2.3418 12.0538C2.14679 9.98183 2.04928 8.94583 2.40374 8.51757C2.59548 8.28591 2.85622 8.14396 3.13499 8.11948C3.65033 8.07421 4.29751 8.81097 5.59186 10.2845C6.26125 11.0465 6.59595 11.4275 6.96933 11.4866C7.17621 11.5192 7.387 11.4856 7.57803 11.3895C7.92281 11.216 8.15268 10.745 8.61241 9.80288L11.0357 4.83726C11.9044 3.05708 12.3388 2.16699 12.9998 2.16699C13.6609 2.16699 14.0953 3.05708 14.964 4.83725L17.3873 9.80288C17.847 10.745 18.0769 11.216 18.4216 11.3895C18.6127 11.4856 18.8235 11.5192 19.0303 11.4866C19.4037 11.4275 19.7384 11.0465 20.4078 10.2845C21.7022 8.81097 22.3493 8.07421 22.8647 8.11948C23.1435 8.14396 23.4042 8.28591 23.5959 8.51757C23.9504 8.94583 23.8529 9.98183 23.6579 12.0538Z" fill="#BCBCBC"/>
<path d="M14.0317 13.7568L13.9252 13.5657C13.5136 12.8272 13.3077 12.458 13 12.458C12.6923 12.458 12.4864 12.8272 12.0748 13.5657L11.9683 13.7568L11.9683 13.7568C11.8513 13.9666 11.7928 14.0716 11.7016 14.1408C11.6104 14.21 11.4968 14.2357 11.2697 14.2871L11.0628 14.3339C10.2635 14.5148 9.86376 14.6052 9.76866 14.911C9.67357 15.2168 9.94606 15.5355 10.491 16.1727L10.632 16.3376C10.7869 16.5187 10.8643 16.6092 10.8992 16.7213C10.934 16.8333 10.9223 16.9541 10.8989 17.1957L10.8776 17.4157C10.7952 18.266 10.754 18.6911 11.0029 18.8801C11.2519 19.0691 11.6261 18.8968 12.3746 18.5521L12.3746 18.5521L12.5682 18.463L12.5683 18.463C12.7809 18.365 12.8873 18.3161 13 18.3161C13.1127 18.3161 13.2191 18.3651 13.4318 18.463L13.6254 18.5521C14.3739 18.8968 14.7481 19.0691 14.9971 18.8801C15.246 18.6911 15.2048 18.266 15.1224 17.4157L15.1011 17.1957C15.0777 16.9541 15.066 16.8333 15.1008 16.7213C15.1357 16.6092 15.2131 16.5187 15.368 16.3376L15.509 16.1727L15.509 16.1727C16.0539 15.5355 16.3264 15.2168 16.2313 14.911C16.1362 14.6052 15.7365 14.5148 14.9372 14.3339L14.7303 14.2871C14.5032 14.2357 14.3896 14.21 14.2984 14.1408C14.2072 14.0716 14.1487 13.9666 14.0317 13.7568Z" fill="#BCBCBC"/>
</svg>
