<svg width="26" height="26" viewBox="0 0 26 26" fill="none" xmlns="http://www.w3.org/2000/svg">
<path opacity="0.5" d="M13.0004 17.3337C6.76044 17.3337 5.65502 11.1148 5.4592 6.18233C5.40472 4.8103 5.37749 4.12428 5.89285 3.48956C6.40821 2.85484 7.02502 2.75077 8.25865 2.54263C9.47638 2.33717 11.0682 2.16699 13.0004 2.16699C14.9325 2.16699 16.5244 2.33717 17.7421 2.54263C18.9757 2.75077 19.5925 2.85484 20.1079 3.48956C20.6233 4.12428 20.596 4.8103 20.5415 6.18233C20.3457 11.1148 19.2403 17.3337 13.0004 17.3337Z" fill="#BCBCBC"/>
<path d="M19.1102 13.4575L22.1615 11.7623C22.9766 11.3095 23.3842 11.0831 23.6086 10.7016C23.8331 10.3201 23.8331 9.8539 23.8331 8.92143L23.8331 8.84286C23.8331 7.71228 23.8332 7.14699 23.5264 6.72141C23.2197 6.29583 22.6834 6.11707 21.6108 5.75955L20.5832 5.41699L20.5648 5.50869C20.5598 5.71373 20.5509 5.93706 20.5412 6.18232C20.4455 8.59208 20.1327 11.3089 19.1102 13.4575Z" fill="#BCBCBC"/>
<path d="M5.45883 6.18233C5.5545 8.5922 5.8673 11.3091 6.88993 13.4578L3.83814 11.7623C3.02302 11.3095 2.61545 11.0831 2.391 10.7016C2.16655 10.3201 2.16653 9.8539 2.16651 8.92143L2.1665 8.84286C2.16648 7.71229 2.16646 7.14699 2.47319 6.72141C2.77993 6.29583 3.31621 6.11707 4.38877 5.75955L5.41644 5.41699L5.43523 5.51092C5.44029 5.71536 5.44913 5.93796 5.45883 6.18233Z" fill="#BCBCBC"/>
<path fill-rule="evenodd" clip-rule="evenodd" d="M5.6875 23.833C5.6875 23.3843 6.05127 23.0205 6.5 23.0205H19.5C19.9487 23.0205 20.3125 23.3843 20.3125 23.833C20.3125 24.2817 19.9487 24.6455 19.5 24.6455H6.5C6.05127 24.6455 5.6875 24.2817 5.6875 23.833Z" fill="#BCBCBC"/>
<path opacity="0.5" d="M16.7458 23.0204H9.25439L9.57595 21.1248C9.67722 20.6184 10.1218 20.2539 10.6382 20.2539H15.362C15.8784 20.2539 16.323 20.6184 16.4243 21.1248L16.7458 23.0204Z" fill="#BCBCBC"/>
<path d="M13.0002 17.3331C12.719 17.3331 12.4482 17.3205 12.1875 17.2959V20.2539H13.8125V17.2959C13.5519 17.3205 13.2812 17.3331 13.0002 17.3331Z" fill="#BCBCBC"/>
<path d="M12.0748 6.52471C12.4864 5.78623 12.6923 5.41699 13 5.41699C13.3077 5.41699 13.5136 5.78623 13.9252 6.52471L14.0317 6.71577C14.1487 6.92562 14.2072 7.03055 14.2984 7.09978C14.3896 7.16901 14.5032 7.19471 14.7303 7.24611L14.9372 7.2929C15.7365 7.47377 16.1362 7.56421 16.2313 7.87C16.3264 8.1758 16.0539 8.49444 15.509 9.13172L15.368 9.29659C15.2131 9.47768 15.1357 9.56823 15.1008 9.68025C15.066 9.79227 15.0777 9.91308 15.1011 10.1547L15.1224 10.3747C15.2048 11.2249 15.246 11.6501 14.9971 11.8391C14.7481 12.0281 14.3739 11.8557 13.6254 11.5111L13.4318 11.422C13.2191 11.324 13.1127 11.2751 13 11.2751C12.8873 11.2751 12.7809 11.324 12.5682 11.422L12.3746 11.5111C11.6261 11.8557 11.2519 12.0281 11.0029 11.8391C10.754 11.6501 10.7952 11.2249 10.8776 10.3747L10.8989 10.1547C10.9223 9.91308 10.934 9.79227 10.8992 9.68025C10.8643 9.56823 10.7869 9.47768 10.632 9.29659L10.491 9.13172C9.94606 8.49444 9.67357 8.1758 9.76866 7.87C9.86376 7.56421 10.2635 7.47377 11.0628 7.2929L11.2697 7.24611C11.4968 7.19471 11.6104 7.16901 11.7016 7.09978C11.7928 7.03055 11.8513 6.92562 11.9683 6.71577L12.0748 6.52471Z" fill="#BCBCBC"/>
</svg>
