<svg width="26" height="26" viewBox="0 0 26 26" fill="none" xmlns="http://www.w3.org/2000/svg">
<path opacity="0.5" d="M23.8332 20.8066V13.0003C23.8332 7.01724 18.9829 2.16699 12.9998 2.16699C7.01675 2.16699 2.1665 7.01724 2.1665 13.0003V20.8066C2.1665 22.1973 3.63006 23.1019 4.87397 22.4799C5.87937 21.9772 7.07704 22.0518 8.01232 22.6753C9.06448 23.3768 10.4352 23.3768 11.4874 22.6753L11.8694 22.4206C12.5539 21.9643 13.4457 21.9643 14.1303 22.4206L14.5123 22.6753C15.5645 23.3768 16.9352 23.3768 17.9874 22.6753C18.9226 22.0518 20.1203 21.9772 21.1257 22.4799C22.3696 23.1019 23.8332 22.1974 23.8332 20.8066Z" fill="#BCBCBC"/>
<path d="M16.2498 13C16.8481 13 17.3332 12.2725 17.3332 11.375C17.3332 10.4775 16.8481 9.75 16.2498 9.75C15.6515 9.75 15.1665 10.4775 15.1665 11.375C15.1665 12.2725 15.6515 13 16.2498 13Z" fill="#BCBCBC"/>
<path d="M10.8332 11.375C10.8332 12.2725 10.3481 13 9.74984 13C9.15153 13 8.6665 12.2725 8.6665 11.375C8.6665 10.4775 9.15153 9.75 9.74984 9.75C10.3481 9.75 10.8332 10.4775 10.8332 11.375Z" fill="#BCBCBC"/>
</svg>
