<svg width="26" height="26" viewBox="0 0 26 26" fill="none" xmlns="http://www.w3.org/2000/svg">
<path opacity="0.5" d="M3.25 10.8337C3.25 6.74815 3.25 4.7054 4.5192 3.4362C5.78841 2.16699 7.83116 2.16699 11.9167 2.16699H14.0833C18.1688 2.16699 20.2116 2.16699 21.4808 3.4362C22.75 4.7054 22.75 6.74815 22.75 10.8337V15.167C22.75 19.2525 22.75 21.2953 21.4808 22.5645C20.2116 23.8337 18.1688 23.8337 14.0833 23.8337H11.9167C7.83116 23.8337 5.78841 23.8337 4.5192 22.5645C3.25 21.2953 3.25 19.2525 3.25 15.167V10.8337Z" fill="#BCBCBC"/>
<path fill-rule="evenodd" clip-rule="evenodd" d="M7.854 13C7.854 12.5513 8.21777 12.1875 8.6665 12.1875H17.3332C17.7819 12.1875 18.1457 12.5513 18.1457 13C18.1457 13.4487 17.7819 13.8125 17.3332 13.8125H8.6665C8.21777 13.8125 7.854 13.4487 7.854 13Z" fill="#BCBCBC"/>
<path fill-rule="evenodd" clip-rule="evenodd" d="M7.854 8.66699C7.854 8.21826 8.21777 7.85449 8.6665 7.85449H17.3332C17.7819 7.85449 18.1457 8.21826 18.1457 8.66699C18.1457 9.11572 17.7819 9.47949 17.3332 9.47949H8.6665C8.21777 9.47949 7.854 9.11572 7.854 8.66699Z" fill="#BCBCBC"/>
<path fill-rule="evenodd" clip-rule="evenodd" d="M7.854 17.333C7.854 16.8843 8.21777 16.5205 8.6665 16.5205H14.0832C14.5319 16.5205 14.8957 16.8843 14.8957 17.333C14.8957 17.7817 14.5319 18.1455 14.0832 18.1455H8.6665C8.21777 18.1455 7.854 17.7817 7.854 17.333Z" fill="#BCBCBC"/>
</svg>
