<svg width="26" height="26" viewBox="0 0 26 26" fill="none" xmlns="http://www.w3.org/2000/svg">
<path opacity="0.5" d="M15.1665 3.25H10.8332C6.74766 3.25 4.70491 3.25 3.43571 4.5192C2.1665 5.78841 2.1665 7.83116 2.1665 11.9167C2.1665 16.0022 2.1665 18.0449 3.43571 19.3141C4.70491 20.5833 6.74766 20.5833 10.8332 20.5833H15.1665C19.252 20.5833 21.2948 20.5833 22.564 19.3141C23.8332 18.0449 23.8332 16.0022 23.8332 11.9167C23.8332 7.83116 23.8332 5.78841 22.564 4.5192C21.2948 3.25 19.252 3.25 15.1665 3.25Z" fill="#BCBCBC"/>
<path d="M10.7788 17.3879C11.7874 16.3792 12.2917 15.8749 12.9144 15.8421C12.9713 15.8391 13.0284 15.8391 13.0853 15.8421C13.708 15.8749 14.2123 16.3792 15.221 17.3879C17.4156 19.5825 18.513 20.6799 18.2058 21.6266C18.1794 21.708 18.1466 21.7872 18.1077 21.8634C17.6555 22.7501 16.1036 22.7501 12.9999 22.7501C9.89614 22.7501 8.34428 22.7501 7.89204 21.8634C7.85317 21.7872 7.82038 21.708 7.79397 21.6266C7.48676 20.6799 8.5841 19.5825 10.7788 17.3879Z" fill="#BCBCBC"/>
</svg>
