<svg width="26" height="26" viewBox="0 0 26 26" fill="none" xmlns="http://www.w3.org/2000/svg">
<path opacity="0.5" fill-rule="evenodd" clip-rule="evenodd" d="M13.4634 2.16699C12.2567 2.16699 11.1578 2.81776 8.96005 4.11928L8.21671 4.55949C6.01893 5.86101 4.92004 6.51178 4.31671 7.58366C3.71338 8.65554 3.71338 9.95707 3.71338 12.5601V13.4405C3.71338 16.0436 3.71338 17.3451 4.31671 18.417C4.92004 19.4889 6.01893 20.1396 8.21671 21.4412L8.96005 21.8814C11.1578 23.1829 12.2567 23.8337 13.4634 23.8337C14.67 23.8337 15.7689 23.1829 17.9667 21.8814L18.71 21.4412C20.9078 20.1396 22.0067 19.4889 22.61 18.417C23.2134 17.3451 23.2134 16.0436 23.2134 13.4405V12.5601C23.2134 9.95707 23.2134 8.65554 22.61 7.58366C22.0067 6.51178 20.9078 5.86101 18.71 4.55949L17.9667 4.11928C15.7689 2.81776 14.67 2.16699 13.4634 2.16699Z" fill="#BCBCBC"/>
<path d="M13.4634 8.9375C11.2197 8.9375 9.40088 10.7563 9.40088 13C9.40088 15.2437 11.2197 17.0625 13.4634 17.0625C15.707 17.0625 17.5259 15.2437 17.5259 13C17.5259 10.7563 15.707 8.9375 13.4634 8.9375Z" fill="#BCBCBC"/>
</svg>
