<svg width="28" height="28" viewBox="0 0 28 28" fill="none" xmlns="http://www.w3.org/2000/svg">
<path opacity="0.5" d="M2.3335 7.58301C2.3335 5.10813 2.3335 3.8707 3.10234 3.10185C3.87119 2.33301 5.10862 2.33301 7.5835 2.33301C10.0584 2.33301 11.2958 2.33301 12.0647 3.10185C12.8335 3.8707 12.8335 5.10813 12.8335 7.58301C12.8335 10.0579 12.8335 11.2953 12.0647 12.0642C11.2958 12.833 10.0584 12.833 7.5835 12.833C5.10862 12.833 3.87119 12.833 3.10234 12.0642C2.3335 11.2953 2.3335 10.0579 2.3335 7.58301Z" fill="#008CFF"/>
<path opacity="0.5" d="M15.1665 20.417C15.1665 17.9421 15.1665 16.7047 15.9353 15.9358C16.7042 15.167 17.9416 15.167 20.4165 15.167C22.8914 15.167 24.1288 15.167 24.8977 15.9358C25.6665 16.7047 25.6665 17.9421 25.6665 20.417C25.6665 22.8919 25.6665 24.1293 24.8977 24.8981C24.1288 25.667 22.8914 25.667 20.4165 25.667C17.9416 25.667 16.7042 25.667 15.9353 24.8981C15.1665 24.1293 15.1665 22.8919 15.1665 20.417Z" fill="#008CFF"/>
<path d="M2.3335 20.417C2.3335 17.9421 2.3335 16.7047 3.10234 15.9358C3.87119 15.167 5.10862 15.167 7.5835 15.167C10.0584 15.167 11.2958 15.167 12.0647 15.9358C12.8335 16.7047 12.8335 17.9421 12.8335 20.417C12.8335 22.8919 12.8335 24.1293 12.0647 24.8981C11.2958 25.667 10.0584 25.667 7.5835 25.667C5.10862 25.667 3.87119 25.667 3.10234 24.8981C2.3335 24.1293 2.3335 22.8919 2.3335 20.417Z" fill="#008CFF"/>
<path d="M15.1665 7.58301C15.1665 5.10813 15.1665 3.8707 15.9353 3.10185C16.7042 2.33301 17.9416 2.33301 20.4165 2.33301C22.8914 2.33301 24.1288 2.33301 24.8977 3.10185C25.6665 3.8707 25.6665 5.10813 25.6665 7.58301C25.6665 10.0579 25.6665 11.2953 24.8977 12.0642C24.1288 12.833 22.8914 12.833 20.4165 12.833C17.9416 12.833 16.7042 12.833 15.9353 12.0642C15.1665 11.2953 15.1665 10.0579 15.1665 7.58301Z" fill="#008CFF"/>
</svg>
