<svg width="24" height="19" viewBox="0 0 24 19" fill="none" xmlns="http://www.w3.org/2000/svg">
<path d="M9.04167 9.33333C9.04167 7.88359 10.2169 6.70833 11.6667 6.70833C13.1164 6.70833 14.2917 7.88359 14.2917 9.33333C14.2917 10.7831 13.1164 11.9583 11.6667 11.9583C10.2169 11.9583 9.04167 10.7831 9.04167 9.33333Z" fill="white"/>
<path fill-rule="evenodd" clip-rule="evenodd" d="M0 9.33333C0 11.2459 0.495792 11.8901 1.48738 13.1783C3.46729 15.7505 6.7878 18.6667 11.6667 18.6667C16.5455 18.6667 19.866 15.7505 21.846 13.1783C22.8375 11.8901 23.3333 11.2459 23.3333 9.33333C23.3333 7.42073 22.8375 6.77661 21.846 5.48839C19.866 2.91615 16.5455 0 11.6667 0C6.7878 0 3.46729 2.91615 1.48737 5.48839C0.495792 6.77662 0 7.42073 0 9.33333ZM11.6667 4.95833C9.25042 4.95833 7.29167 6.91709 7.29167 9.33333C7.29167 11.7496 9.25042 13.7083 11.6667 13.7083C14.0829 13.7083 16.0417 11.7496 16.0417 9.33333C16.0417 6.91709 14.0829 4.95833 11.6667 4.95833Z" fill="white"/>
</svg>
