<svg width="28" height="28" viewBox="0 0 28 28" fill="none" xmlns="http://www.w3.org/2000/svg">
<path opacity="0.5" d="M14.9711 25.435C18.618 24.704 23.3333 22.0806 23.3333 15.2965C23.3333 9.12303 18.8145 5.01208 15.5651 3.12315C14.8441 2.704 14 3.25523 14 4.08923V6.22246C14 7.90463 13.2927 10.9751 11.3275 12.2523C10.3242 12.9043 9.24061 11.9284 9.11867 10.738L9.01854 9.76055C8.90213 8.6242 7.74482 7.93438 6.83662 8.6272C5.20504 9.87184 3.5 12.0514 3.5 15.2965C3.5 23.5928 9.67037 25.6669 12.7556 25.6669C12.935 25.6669 13.1236 25.6615 13.3199 25.6502C13.8401 25.5847 13.3199 25.766 14.9711 25.435Z" fill="#E1FF00"/>
<path d="M9.33398 21.518C9.33398 24.5745 11.7972 25.5196 13.3206 25.6498C13.8408 25.5843 13.3206 25.7656 14.9718 25.4346C16.1835 25.0065 17.5007 23.9074 17.5007 21.518C17.5007 20.004 16.5456 19.0699 15.7974 18.6327C15.5685 18.4989 15.3027 18.6673 15.2823 18.9316C15.2174 19.7694 14.4129 20.4367 13.8649 19.7997C13.3806 19.2368 13.1771 18.4145 13.1771 17.8884V17.201C13.1771 16.7865 12.7599 16.512 12.4035 16.7234C11.0782 17.5097 9.33398 19.1271 9.33398 21.518Z" fill="#E1FF00"/>
</svg>
