<svg width="46" height="46" viewBox="0 0 46 46" fill="none" xmlns="http://www.w3.org/2000/svg">
<circle opacity="0.5" cx="23.3333" cy="23.3333" r="13.3333" fill="#008CFF"/>
<path d="M19.0078 19.9298C18.7581 17.1509 16.615 14.5614 15.5747 13.614L15 13C17.3181 11.0513 20.3093 10 23.5747 10C26.5259 10 29.2531 10.9588 31.4619 12.5819C31.774 13.5293 31.1796 15.5088 30.5554 16.4561C30.3293 16.7993 29.8166 17.2253 29.2545 17.6291C27.9872 18.5397 26.3879 18.9901 25.5747 20.6667C25.3422 21.1459 25.3522 21.6144 25.464 22.0217C25.5444 22.3145 25.5957 22.6327 25.5965 22.944C25.5991 23.9505 24.5812 24.6777 23.5747 24.6667C20.9556 24.6381 19.2411 22.5274 19.0078 19.9298Z" fill="#008CFF"/>
<path d="M25.5823 31.7131C26.8997 29.2304 31.2913 29.2304 31.2913 29.2304C35.8673 29.1826 36.0003 25.5 36.5003 24C37.0003 29.5 31.4482 35.6738 25.5003 36.5C25.0702 35.5947 24.5786 33.6045 25.5823 31.7131Z" fill="#008CFF"/>
</svg>
