<svg width="28" height="28" viewBox="0 0 28 28" fill="none" xmlns="http://www.w3.org/2000/svg">
<path d="M23.6473 18.9755L24.4704 14.2157C24.676 13.0269 23.7618 11.9396 22.5566 11.9396H16.512C15.9129 11.9396 15.4567 11.4018 15.5537 10.81L16.3268 6.09133C16.4524 5.32475 16.4165 4.54034 16.2215 3.78845C16.0599 3.16559 15.5794 2.66545 14.9474 2.46242L14.7782 2.40809C14.3963 2.28538 13.9794 2.31394 13.6193 2.48747C13.2229 2.67847 12.9329 3.02686 12.8254 3.44121L12.2704 5.58071C12.0939 6.26145 11.8366 6.91853 11.505 7.53939C11.0204 8.44654 10.2712 9.17255 9.4924 9.84365L7.81388 11.2901C7.34061 11.6979 7.09207 12.3087 7.14592 12.9315L8.09345 23.8896C8.18036 24.8947 9.02071 25.6663 10.0285 25.6663H15.4518C19.5133 25.6663 22.9796 22.8365 23.6473 18.9755Z" fill="#008DFF"/>
<path opacity="0.5" fill-rule="evenodd" clip-rule="evenodd" d="M4.58896 11.0691C5.06459 11.05 5.47197 11.3836 5.51299 11.8258L6.66466 24.243C6.73864 25.0406 6.06473 25.728 5.2042 25.728C4.39364 25.728 3.73828 25.115 3.73828 24.3608V11.8972C3.73828 11.4533 4.11332 11.0883 4.58896 11.0691Z" fill="#008DFF"/>
</svg>
