<svg width="48" height="48" viewBox="0 0 48 48" fill="none" xmlns="http://www.w3.org/2000/svg">
<rect width="48" height="48" rx="24" transform="matrix(-1 0 0 1 48 0)" fill="white"/>
<path fill-rule="evenodd" clip-rule="evenodd" d="M23.4881 16.4306C23.8026 16.7001 23.839 17.1736 23.5694 17.4881L17.9878 24L23.5694 30.5119C23.839 30.8264 23.8026 31.2999 23.4881 31.5695C23.1736 31.839 22.7001 31.8026 22.4306 31.4881L16.4306 24.4881C16.1898 24.2072 16.1898 23.7928 16.4306 23.5119L22.4306 16.5119C22.7001 16.1974 23.1736 16.161 23.4881 16.4306Z" fill="#008CFF"/>
<path d="M27.75 17C27.75 16.6862 27.5546 16.4055 27.2602 16.2966C26.9658 16.1877 26.6348 16.2737 26.4306 16.512L20.4306 23.512C20.1898 23.7928 20.1898 24.2073 20.4306 24.4881L26.4306 31.4881C26.6348 31.7264 26.9658 31.8124 27.2602 31.7035C27.5546 31.5946 27.75 31.3139 27.75 31L27.75 17Z" fill="#008CFF"/>
</svg>
