<svg width="32" height="32" viewBox="0 0 32 32" fill="none" xmlns="http://www.w3.org/2000/svg">
<path opacity="0.6" d="M20.0003 2.66699H18.667C14.8958 2.66699 13.0101 2.66699 11.8386 3.83857C10.667 5.01014 10.667 6.89576 10.667 10.667V21.3337C10.667 25.1049 10.667 26.9905 11.8386 28.1621C13.0101 29.3337 14.8958 29.3337 18.667 29.3337H20.0003C23.7716 29.3337 25.6572 29.3337 26.8288 28.1621C28.0003 26.9905 28.0003 25.1049 28.0003 21.3337V10.667C28.0003 6.89576 28.0003 5.01014 26.8288 3.83857C25.6572 2.66699 23.7716 2.66699 20.0003 2.66699Z" fill="white"/>
<path opacity="0.4" d="M10.6667 10.6667C10.6667 8.61666 10.6667 7.12383 10.8549 6H10.6667C7.52397 6 5.95262 6 4.97631 6.97631C4 7.95262 4 9.52397 4 12.6667V19.3333C4 22.476 4 24.0474 4.97631 25.0237C5.95262 26 7.52397 26 10.6667 26H10.8549C10.6667 24.8762 10.6667 23.3833 10.6667 21.3333V17V15V10.6667Z" fill="white"/>
<path fill-rule="evenodd" clip-rule="evenodd" d="M19.3741 15.2926C19.7646 15.6831 19.7646 16.3163 19.3741 16.7068L16.7074 19.3734C16.3169 19.764 15.6837 19.764 15.2932 19.3734C14.9027 18.9829 14.9027 18.3498 15.2932 17.9592L16.2528 16.9997L6.66699 16.9997C6.11471 16.9997 5.66699 16.552 5.66699 15.9997C5.66699 15.4474 6.11471 14.9997 6.66699 14.9997L16.2528 14.9997L15.2932 14.0401C14.9027 13.6496 14.9027 13.0164 15.2932 12.6259C15.6837 12.2354 16.3169 12.2354 16.7074 12.6259L19.3741 15.2926Z" fill="white"/>
</svg>
