<svg width="268" height="33" viewBox="0 0 268 33" fill="none" xmlns="http://www.w3.org/2000/svg">
<path d="M6.35407 4.63949L2.72318 10.691L0 5.95064L3.53004 0H21.9871L23.6008 2.4206L24.912 0H43.3691L47 5.95064L44.2768 10.691L40.8476 4.63949H27.6352L21.1803 15.7339L22.3905 18.0536L18.2554 24.912L19.0622 21.5837L15.7339 15.7339L20.8777 7.06009L19.5665 4.63949H6.35407Z" fill="#008CFF"/>
<path d="M40.6459 28.1398L44.2768 22.0883L47 26.8287L43.47 32.7793H25.0129L23.3992 30.3587L22.088 32.7793H3.63092L1.90735e-05 26.8287L2.72319 22.0883L6.15237 28.1398H19.3648L25.8197 17.0454L24.6095 14.7256L28.7446 7.86728L27.9378 11.1956L31.2661 17.0454L26.1223 25.7192L27.4335 28.1398H40.6459Z" fill="#008CFF"/>
<path d="M80.3046 11.0447H72.4527V21.7342H80.3046V25.8791H70.2716L67 22.3887V10.1721L70.2716 6.68164H80.3046V11.0447Z" fill="#008CFF"/>
<path d="M90.7738 6.68164H85.3211L89.4651 20.4253H91.8643V25.8791H96.4446V20.4253H99.0618L102.77 6.68164H97.5351L95.1359 16.4985H93.391L90.7738 6.68164Z" fill="#008CFF"/>
<path d="M120.655 6.68164H108.44V25.8791H121.091L123.926 23.2613V17.5893L122.181 15.8441L123.926 14.7533V9.95394L120.655 6.68164Z" fill="#008CFF"/>
<path d="M143.992 6.68164H130.251V25.8791H143.992V21.9524H135.268V18.2438H142.683V14.0989H135.268V10.6084H143.992V6.68164Z" fill="#008CFF"/>
<path d="M162.749 6.68164H150.317V25.8791H155.334V20.2071H159.696L161.877 25.8791H167.111L163.84 19.3345L166.021 17.153V9.95394L162.749 6.68164Z" fill="#008CFF"/>
<path d="M186.959 6.68164L183.906 9.95394V22.825L186.959 25.8791H197.21L200.482 22.825V9.95394L197.21 6.68164H186.959Z" fill="#008CFF"/>
<path d="M211.605 6.68164H207.025V25.8791H220.548V18.2438H216.404V21.7342H211.824L211.605 6.68164Z" fill="#008CFF"/>
<path d="M238.651 6.68164H230.363L225.564 25.8791H231.017L232.326 21.9524H236.906L237.997 25.8791H243.231L238.651 6.68164Z" fill="#008CFF"/>
<path d="M254.355 6.68164H248.902V26.0973H253.7L253.264 13.4444L257.408 20.6435H259.371L262.861 13.4444V26.0973H267.877V6.68164H262.206L258.499 14.7533L254.355 6.68164Z" fill="#008CFF"/>
<path d="M112.925 14.8959V10.042H119.273V14.8959H112.925Z" fill="white"/>
<path d="M112.925 22.3635V17.5095H119.273V22.3635H112.925Z" fill="white"/>
<path d="M161.091 10.4154H155.117V16.7628H161.091V10.4154Z" fill="white"/>
<path d="M195.442 10.7887H189.094V21.9901H195.442V10.7887Z" fill="white"/>
<path d="M235.393 10.4154H233.9L232.406 18.6297H237.26L235.393 10.4154Z" fill="white"/>
</svg>
