<svg width="46" height="46" viewBox="0 0 46 46" fill="none" xmlns="http://www.w3.org/2000/svg">
<path opacity="0.5" d="M25.6 11H19.7333C14.2022 11 11.4366 11 9.71831 12.7574C8 14.5147 8 17.3431 8 23C8 28.6569 8 31.4853 9.71831 33.2426C11.4366 35 14.2022 35 19.7333 35H25.6C31.1311 35 33.8967 35 35.615 33.2426C37.3333 31.4853 37.3333 28.6569 37.3333 23C37.3333 17.3431 37.3333 14.5147 35.615 12.7574C33.8967 11 31.1311 11 25.6 11Z" fill="#008CFF"/>
<path d="M32.5048 16.7117C32.9715 16.3228 33.0346 15.6291 32.6457 15.1624C32.2567 14.6957 31.5631 14.6327 31.0964 15.0216L27.93 17.6602C26.5617 18.8005 25.6117 19.5896 24.8096 20.1055C24.0332 20.6048 23.5067 20.7724 23.0006 20.7724C22.4945 20.7724 21.968 20.6048 21.1916 20.1055C20.3896 19.5896 19.4395 18.8005 18.0712 17.6602L14.9048 15.0216C14.4381 14.6327 13.7445 14.6957 13.3556 15.1624C12.9666 15.6291 13.0297 16.3228 13.4964 16.7117L16.7179 19.3963C18.0179 20.4796 19.0716 21.3577 20.0015 21.9558C20.9703 22.5789 21.9137 22.9724 23.0006 22.9724C24.0875 22.9724 25.031 22.5789 25.9997 21.9558C26.9296 21.3577 27.9833 20.4796 29.2833 19.3963L32.5048 16.7117Z" fill="#008CFF"/>
</svg>
