<svg width="48" height="48" viewBox="0 0 48 48" fill="none" xmlns="http://www.w3.org/2000/svg">
<rect width="48" height="48" rx="24" fill="white"/>
<path fill-rule="evenodd" clip-rule="evenodd" d="M24.5119 16.4306C24.1974 16.7001 24.161 17.1736 24.4306 17.4881L30.0122 24L24.4306 30.5119C24.161 30.8264 24.1974 31.2999 24.5119 31.5695C24.8264 31.839 25.2999 31.8026 25.5694 31.4881L31.5694 24.4881C31.8102 24.2072 31.8102 23.7928 31.5694 23.5119L25.5694 16.5119C25.2999 16.1974 24.8264 16.161 24.5119 16.4306Z" fill="#008CFF"/>
<path d="M20.25 17C20.25 16.6862 20.4454 16.4055 20.7398 16.2966C21.0342 16.1877 21.3652 16.2737 21.5694 16.512L27.5694 23.512C27.8102 23.7928 27.8102 24.2073 27.5694 24.4881L21.5694 31.4881C21.3652 31.7264 21.0342 31.8124 20.7398 31.7035C20.4454 31.5946 20.25 31.3139 20.25 31L20.25 17Z" fill="#008CFF"/>
</svg>
