<svg width="26" height="26" viewBox="0 0 26 26" fill="none" xmlns="http://www.w3.org/2000/svg">
<path fill-rule="evenodd" clip-rule="evenodd" d="M12.4582 2.97949C7.22297 2.97949 2.979 7.22346 2.979 12.4587C2.979 17.6939 7.22297 21.9378 12.4582 21.9378C17.6934 21.9378 21.9373 17.6939 21.9373 12.4587C21.9373 7.22346 17.6934 2.97949 12.4582 2.97949ZM1.354 12.4587C1.354 6.326 6.32551 1.35449 12.4582 1.35449C18.5908 1.35449 23.5623 6.326 23.5623 12.4587C23.5623 15.2325 22.5452 17.7689 20.8636 19.715L24.4077 23.2591C24.725 23.5764 24.725 24.0909 24.4077 24.4082C24.0904 24.7255 23.5759 24.7255 23.2586 24.4082L19.7146 20.8641C17.7684 22.5457 15.2321 23.5628 12.4582 23.5628C6.32551 23.5628 1.354 18.5913 1.354 12.4587Z" fill="#646464"/>
</svg>
