<svg width="81" height="81" viewBox="0 0 81 81" fill="none" xmlns="http://www.w3.org/2000/svg">
<path opacity="0.5" d="M13.7797 40.1432C15.261 32.2427 16.0017 28.2924 18.8137 25.9587C21.6256 23.625 25.6447 23.625 33.6828 23.625H47.3208C55.359 23.625 59.3781 23.625 62.19 25.9587C65.002 28.2924 65.7427 32.2427 67.224 40.1432L69.7552 53.6431C71.8383 64.7526 72.8798 70.3074 69.8432 73.9662C66.8067 77.625 61.1552 77.625 49.8521 77.625H31.1516C19.8485 77.625 14.197 77.625 11.1604 73.9662C8.12389 70.3074 9.16541 64.7526 11.2484 53.6432L13.7797 40.1432Z" fill="white"/>
<path d="M32.9062 20.1992C32.9062 16.0053 36.3061 12.6054 40.5 12.6054C44.6939 12.6054 48.0938 16.0053 48.0938 20.1992V23.5742C50.004 23.5748 51.6775 23.58 53.1558 23.6244C53.1561 23.6077 53.1562 23.5909 53.1562 23.5742V20.1992C53.1562 13.2093 47.4899 7.54291 40.5 7.54291C33.5101 7.54291 27.8438 13.2093 27.8438 20.1992V23.5742C27.8438 23.591 27.8439 23.6077 27.8442 23.6245C29.3225 23.5801 30.9959 23.5749 32.9062 23.5742V20.1992Z" fill="white"/>
<path d="M33.3394 53.1562C34.3831 56.109 37.1993 58.2185 40.5017 58.2185C43.8041 58.2185 46.6203 56.109 47.664 53.1562C48.1299 51.8381 49.576 51.1473 50.8941 51.6131C52.2122 52.079 52.903 53.5252 52.4371 54.8432C50.7009 59.7555 46.0163 63.281 40.5017 63.281C34.9871 63.281 30.3025 59.7555 28.5663 54.8432C28.1004 53.5252 28.7912 52.079 30.1093 51.6131C31.4274 51.1473 32.8735 51.8381 33.3394 53.1562Z" fill="white"/>
</svg>
